<?xml version="1.0" encoding="utf-8" standalone="no"?>
<!DOCTYPE svg PUBLIC "-//W3C//DTD SVG 1.1//EN"
  "http://www.w3.org/Graphics/SVG/1.1/DTD/svg11.dtd">
<svg xmlns:xlink="http://www.w3.org/1999/xlink" width="1152pt" height="576pt" viewBox="0 0 1152 576" xmlns="http://www.w3.org/2000/svg" version="1.1">
 <metadata>
  <rdf:RDF xmlns:dc="http://purl.org/dc/elements/1.1/" xmlns:cc="http://creativecommons.org/ns#" xmlns:rdf="http://www.w3.org/1999/02/22-rdf-syntax-ns#">
   <cc:Work>
    <dc:type rdf:resource="http://purl.org/dc/dcmitype/StillImage"/>
    <dc:date>2026-01-18T16:03:39.086976</dc:date>
    <dc:format>image/svg+xml</dc:format>
    <dc:creator>
     <cc:Agent>
      <dc:title>Matplotlib v3.10.6, https://matplotlib.org/</dc:title>
     </cc:Agent>
    </dc:creator>
   </cc:Work>
  </rdf:RDF>
 </metadata>
 <defs>
  <style type="text/css">*{stroke-linejoin: round; stroke-linecap: butt}</style>
 </defs>
 <g id="figure_1">
  <g id="patch_1">
   <path d="M 0 576 
L 1152 576 
L 1152 0 
L 0 0 
z
" style="fill: #ffffff"/>
  </g>
  <g id="axes_1">
   <g id="patch_2">
    <path d="M 144 512.64 
L 1036.8 512.64 
L 1036.8 69.12 
L 144 69.12 
z
" style="fill: #ffffff"/>
   </g>
   <g id="matplotlib.axis_1">
    <g id="xtick_1">
     <g id="line2d_1">
      <defs>
       <path id="mc4f469d6e4" d="M 0 0 
L 0 3.5 
" style="stroke: #000000; stroke-width: 0.8"/>
      </defs>
      <g>
       <use xlink:href="#mc4f469d6e4" x="184.581818" y="512.64" style="stroke: #000000; stroke-width: 0.8"/>
      </g>
     </g>
     <g id="text_1">
      <!-- N_Days -->
      <g transform="translate(173.100172 551.288553) rotate(-45) scale(0.1 -0.1)">
       <defs>
        <path id="DejaVuSans-4e" d="M 628 4666 
L 1478 4666 
L 3547 763 
L 3547 4666 
L 4159 4666 
L 4159 0 
L 3309 0 
L 1241 3903 
L 1241 0 
L 628 0 
L 628 4666 
z
" transform="scale(0.015625)"/>
        <path id="DejaVuSans-5f" d="M 3263 -1063 
L 3263 -1509 
L -63 -1509 
L -63 -1063 
L 3263 -1063 
z
" transform="scale(0.015625)"/>
        <path id="DejaVuSans-44" d="M 1259 4147 
L 1259 519 
L 2022 519 
Q 2988 519 3436 956 
Q 3884 1394 3884 2338 
Q 3884 3275 3436 3711 
Q 2988 4147 2022 4147 
L 1259 4147 
z
M 628 4666 
L 1925 4666 
Q 3281 4666 3915 4102 
Q 4550 3538 4550 2338 
Q 4550 1131 3912 565 
Q 3275 0 1925 0 
L 628 0 
L 628 4666 
z
" transform="scale(0.015625)"/>
        <path id="DejaVuSans-61" d="M 2194 1759 
Q 1497 1759 1228 1600 
Q 959 1441 959 1056 
Q 959 750 1161 570 
Q 1363 391 1709 391 
Q 2188 391 2477 730 
Q 2766 1069 2766 1631 
L 2766 1759 
L 2194 1759 
z
M 3341 1997 
L 3341 0 
L 2766 0 
L 2766 531 
Q 2569 213 2275 61 
Q 1981 -91 1556 -91 
Q 1019 -91 701 211 
Q 384 513 384 1019 
Q 384 1609 779 1909 
Q 1175 2209 1959 2209 
L 2766 2209 
L 2766 2266 
Q 2766 2663 2505 2880 
Q 2244 3097 1772 3097 
Q 1472 3097 1187 3025 
Q 903 2953 641 2809 
L 641 3341 
Q 956 3463 1253 3523 
Q 1550 3584 1831 3584 
Q 2591 3584 2966 3190 
Q 3341 2797 3341 1997 
z
" transform="scale(0.015625)"/>
        <path id="DejaVuSans-79" d="M 2059 -325 
Q 1816 -950 1584 -1140 
Q 1353 -1331 966 -1331 
L 506 -1331 
L 506 -850 
L 844 -850 
Q 1081 -850 1212 -737 
Q 1344 -625 1503 -206 
L 1606 56 
L 191 3500 
L 800 3500 
L 1894 763 
L 2988 3500 
L 3597 3500 
L 2059 -325 
z
" transform="scale(0.015625)"/>
        <path id="DejaVuSans-73" d="M 2834 3397 
L 2834 2853 
Q 2591 2978 2328 3040 
Q 2066 3103 1784 3103 
Q 1356 3103 1142 2972 
Q 928 2841 928 2578 
Q 928 2378 1081 2264 
Q 1234 2150 1697 2047 
L 1894 2003 
Q 2506 1872 2764 1633 
Q 3022 1394 3022 966 
Q 3022 478 2636 193 
Q 2250 -91 1575 -91 
Q 1294 -91 989 -36 
Q 684 19 347 128 
L 347 722 
Q 666 556 975 473 
Q 1284 391 1588 391 
Q 1994 391 2212 530 
Q 2431 669 2431 922 
Q 2431 1156 2273 1281 
Q 2116 1406 1581 1522 
L 1381 1569 
Q 847 1681 609 1914 
Q 372 2147 372 2553 
Q 372 3047 722 3315 
Q 1072 3584 1716 3584 
Q 2034 3584 2315 3537 
Q 2597 3491 2834 3397 
z
" transform="scale(0.015625)"/>
       </defs>
       <use xlink:href="#DejaVuSans-4e"/>
       <use xlink:href="#DejaVuSans-5f" transform="translate(74.804688 0)"/>
       <use xlink:href="#DejaVuSans-44" transform="translate(124.804688 0)"/>
       <use xlink:href="#DejaVuSans-61" transform="translate(201.806641 0)"/>
       <use xlink:href="#DejaVuSans-79" transform="translate(263.085938 0)"/>
       <use xlink:href="#DejaVuSans-73" transform="translate(322.265625 0)"/>
      </g>
     </g>
    </g>
    <g id="xtick_2">
     <g id="line2d_2">
      <g>
       <use xlink:href="#mc4f469d6e4" x="265.745455" y="512.64" style="stroke: #000000; stroke-width: 0.8"/>
      </g>
     </g>
     <g id="text_2">
      <!-- Age -->
      <g transform="translate(260.858131 538.689899) rotate(-45) scale(0.1 -0.1)">
       <defs>
        <path id="DejaVuSans-41" d="M 2188 4044 
L 1331 1722 
L 3047 1722 
L 2188 4044 
z
M 1831 4666 
L 2547 4666 
L 4325 0 
L 3669 0 
L 3244 1197 
L 1141 1197 
L 716 0 
L 50 0 
L 1831 4666 
z
" transform="scale(0.015625)"/>
        <path id="DejaVuSans-67" d="M 2906 1791 
Q 2906 2416 2648 2759 
Q 2391 3103 1925 3103 
Q 1463 3103 1205 2759 
Q 947 2416 947 1791 
Q 947 1169 1205 825 
Q 1463 481 1925 481 
Q 2391 481 2648 825 
Q 2906 1169 2906 1791 
z
M 3481 434 
Q 3481 -459 3084 -895 
Q 2688 -1331 1869 -1331 
Q 1566 -1331 1297 -1286 
Q 1028 -1241 775 -1147 
L 775 -588 
Q 1028 -725 1275 -790 
Q 1522 -856 1778 -856 
Q 2344 -856 2625 -561 
Q 2906 -266 2906 331 
L 2906 616 
Q 2728 306 2450 153 
Q 2172 0 1784 0 
Q 1141 0 747 490 
Q 353 981 353 1791 
Q 353 2603 747 3093 
Q 1141 3584 1784 3584 
Q 2172 3584 2450 3431 
Q 2728 3278 2906 2969 
L 2906 3500 
L 3481 3500 
L 3481 434 
z
" transform="scale(0.015625)"/>
        <path id="DejaVuSans-65" d="M 3597 1894 
L 3597 1613 
L 953 1613 
Q 991 1019 1311 708 
Q 1631 397 2203 397 
Q 2534 397 2845 478 
Q 3156 559 3463 722 
L 3463 178 
Q 3153 47 2828 -22 
Q 2503 -91 2169 -91 
Q 1331 -91 842 396 
Q 353 884 353 1716 
Q 353 2575 817 3079 
Q 1281 3584 2069 3584 
Q 2775 3584 3186 3129 
Q 3597 2675 3597 1894 
z
M 3022 2063 
Q 3016 2534 2758 2815 
Q 2500 3097 2075 3097 
Q 1594 3097 1305 2825 
Q 1016 2553 972 2059 
L 3022 2063 
z
" transform="scale(0.015625)"/>
       </defs>
       <use xlink:href="#DejaVuSans-41"/>
       <use xlink:href="#DejaVuSans-67" transform="translate(68.408203 0)"/>
       <use xlink:href="#DejaVuSans-65" transform="translate(131.884766 0)"/>
      </g>
     </g>
    </g>
    <g id="xtick_3">
     <g id="line2d_3">
      <g>
       <use xlink:href="#mc4f469d6e4" x="346.909091" y="512.64" style="stroke: #000000; stroke-width: 0.8"/>
      </g>
     </g>
     <g id="text_3">
      <!-- Bilirubin -->
      <g transform="translate(334.326457 554.08052) rotate(-45) scale(0.1 -0.1)">
       <defs>
        <path id="DejaVuSans-42" d="M 1259 2228 
L 1259 519 
L 2272 519 
Q 2781 519 3026 730 
Q 3272 941 3272 1375 
Q 3272 1813 3026 2020 
Q 2781 2228 2272 2228 
L 1259 2228 
z
M 1259 4147 
L 1259 2741 
L 2194 2741 
Q 2656 2741 2882 2914 
Q 3109 3088 3109 3444 
Q 3109 3797 2882 3972 
Q 2656 4147 2194 4147 
L 1259 4147 
z
M 628 4666 
L 2241 4666 
Q 2963 4666 3353 4366 
Q 3744 4066 3744 3513 
Q 3744 3084 3544 2831 
Q 3344 2578 2956 2516 
Q 3422 2416 3680 2098 
Q 3938 1781 3938 1306 
Q 3938 681 3513 340 
Q 3088 0 2303 0 
L 628 0 
L 628 4666 
z
" transform="scale(0.015625)"/>
        <path id="DejaVuSans-69" d="M 603 3500 
L 1178 3500 
L 1178 0 
L 603 0 
L 603 3500 
z
M 603 4863 
L 1178 4863 
L 1178 4134 
L 603 4134 
L 603 4863 
z
" transform="scale(0.015625)"/>
        <path id="DejaVuSans-6c" d="M 603 4863 
L 1178 4863 
L 1178 0 
L 603 0 
L 603 4863 
z
" transform="scale(0.015625)"/>
        <path id="DejaVuSans-72" d="M 2631 2963 
Q 2534 3019 2420 3045 
Q 2306 3072 2169 3072 
Q 1681 3072 1420 2755 
Q 1159 2438 1159 1844 
L 1159 0 
L 581 0 
L 581 3500 
L 1159 3500 
L 1159 2956 
Q 1341 3275 1631 3429 
Q 1922 3584 2338 3584 
Q 2397 3584 2469 3576 
Q 2541 3569 2628 3553 
L 2631 2963 
z
" transform="scale(0.015625)"/>
        <path id="DejaVuSans-75" d="M 544 1381 
L 544 3500 
L 1119 3500 
L 1119 1403 
Q 1119 906 1312 657 
Q 1506 409 1894 409 
Q 2359 409 2629 706 
Q 2900 1003 2900 1516 
L 2900 3500 
L 3475 3500 
L 3475 0 
L 2900 0 
L 2900 538 
Q 2691 219 2414 64 
Q 2138 -91 1772 -91 
Q 1169 -91 856 284 
Q 544 659 544 1381 
z
M 1991 3584 
L 1991 3584 
z
" transform="scale(0.015625)"/>
        <path id="DejaVuSans-62" d="M 3116 1747 
Q 3116 2381 2855 2742 
Q 2594 3103 2138 3103 
Q 1681 3103 1420 2742 
Q 1159 2381 1159 1747 
Q 1159 1113 1420 752 
Q 1681 391 2138 391 
Q 2594 391 2855 752 
Q 3116 1113 3116 1747 
z
M 1159 2969 
Q 1341 3281 1617 3432 
Q 1894 3584 2278 3584 
Q 2916 3584 3314 3078 
Q 3713 2572 3713 1747 
Q 3713 922 3314 415 
Q 2916 -91 2278 -91 
Q 1894 -91 1617 61 
Q 1341 213 1159 525 
L 1159 0 
L 581 0 
L 581 4863 
L 1159 4863 
L 1159 2969 
z
" transform="scale(0.015625)"/>
        <path id="DejaVuSans-6e" d="M 3513 2113 
L 3513 0 
L 2938 0 
L 2938 2094 
Q 2938 2591 2744 2837 
Q 2550 3084 2163 3084 
Q 1697 3084 1428 2787 
Q 1159 2491 1159 1978 
L 1159 0 
L 581 0 
L 581 3500 
L 1159 3500 
L 1159 2956 
Q 1366 3272 1645 3428 
Q 1925 3584 2291 3584 
Q 2894 3584 3203 3211 
Q 3513 2838 3513 2113 
z
" transform="scale(0.015625)"/>
       </defs>
       <use xlink:href="#DejaVuSans-42"/>
       <use xlink:href="#DejaVuSans-69" transform="translate(68.603516 0)"/>
       <use xlink:href="#DejaVuSans-6c" transform="translate(96.386719 0)"/>
       <use xlink:href="#DejaVuSans-69" transform="translate(124.169922 0)"/>
       <use xlink:href="#DejaVuSans-72" transform="translate(151.953125 0)"/>
       <use xlink:href="#DejaVuSans-75" transform="translate(193.066406 0)"/>
       <use xlink:href="#DejaVuSans-62" transform="translate(256.445312 0)"/>
       <use xlink:href="#DejaVuSans-69" transform="translate(319.921875 0)"/>
       <use xlink:href="#DejaVuSans-6e" transform="translate(347.705078 0)"/>
      </g>
     </g>
    </g>
    <g id="xtick_4">
     <g id="line2d_4">
      <g>
       <use xlink:href="#mc4f469d6e4" x="428.072727" y="512.64" style="stroke: #000000; stroke-width: 0.8"/>
      </g>
     </g>
     <g id="text_4">
      <!-- Cholesterol -->
      <g transform="translate(410.070783 564.919141) rotate(-45) scale(0.1 -0.1)">
       <defs>
        <path id="DejaVuSans-43" d="M 4122 4306 
L 4122 3641 
Q 3803 3938 3442 4084 
Q 3081 4231 2675 4231 
Q 1875 4231 1450 3742 
Q 1025 3253 1025 2328 
Q 1025 1406 1450 917 
Q 1875 428 2675 428 
Q 3081 428 3442 575 
Q 3803 722 4122 1019 
L 4122 359 
Q 3791 134 3420 21 
Q 3050 -91 2638 -91 
Q 1578 -91 968 557 
Q 359 1206 359 2328 
Q 359 3453 968 4101 
Q 1578 4750 2638 4750 
Q 3056 4750 3426 4639 
Q 3797 4528 4122 4306 
z
" transform="scale(0.015625)"/>
        <path id="DejaVuSans-68" d="M 3513 2113 
L 3513 0 
L 2938 0 
L 2938 2094 
Q 2938 2591 2744 2837 
Q 2550 3084 2163 3084 
Q 1697 3084 1428 2787 
Q 1159 2491 1159 1978 
L 1159 0 
L 581 0 
L 581 4863 
L 1159 4863 
L 1159 2956 
Q 1366 3272 1645 3428 
Q 1925 3584 2291 3584 
Q 2894 3584 3203 3211 
Q 3513 2838 3513 2113 
z
" transform="scale(0.015625)"/>
        <path id="DejaVuSans-6f" d="M 1959 3097 
Q 1497 3097 1228 2736 
Q 959 2375 959 1747 
Q 959 1119 1226 758 
Q 1494 397 1959 397 
Q 2419 397 2687 759 
Q 2956 1122 2956 1747 
Q 2956 2369 2687 2733 
Q 2419 3097 1959 3097 
z
M 1959 3584 
Q 2709 3584 3137 3096 
Q 3566 2609 3566 1747 
Q 3566 888 3137 398 
Q 2709 -91 1959 -91 
Q 1206 -91 779 398 
Q 353 888 353 1747 
Q 353 2609 779 3096 
Q 1206 3584 1959 3584 
z
" transform="scale(0.015625)"/>
        <path id="DejaVuSans-74" d="M 1172 4494 
L 1172 3500 
L 2356 3500 
L 2356 3053 
L 1172 3053 
L 1172 1153 
Q 1172 725 1289 603 
Q 1406 481 1766 481 
L 2356 481 
L 2356 0 
L 1766 0 
Q 1100 0 847 248 
Q 594 497 594 1153 
L 594 3053 
L 172 3053 
L 172 3500 
L 594 3500 
L 594 4494 
L 1172 4494 
z
" transform="scale(0.015625)"/>
       </defs>
       <use xlink:href="#DejaVuSans-43"/>
       <use xlink:href="#DejaVuSans-68" transform="translate(69.824219 0)"/>
       <use xlink:href="#DejaVuSans-6f" transform="translate(133.203125 0)"/>
       <use xlink:href="#DejaVuSans-6c" transform="translate(194.384766 0)"/>
       <use xlink:href="#DejaVuSans-65" transform="translate(222.167969 0)"/>
       <use xlink:href="#DejaVuSans-73" transform="translate(283.691406 0)"/>
       <use xlink:href="#DejaVuSans-74" transform="translate(335.791016 0)"/>
       <use xlink:href="#DejaVuSans-65" transform="translate(375 0)"/>
       <use xlink:href="#DejaVuSans-72" transform="translate(436.523438 0)"/>
       <use xlink:href="#DejaVuSans-6f" transform="translate(475.386719 0)"/>
       <use xlink:href="#DejaVuSans-6c" transform="translate(536.568359 0)"/>
      </g>
     </g>
    </g>
    <g id="xtick_5">
     <g id="line2d_5">
      <g>
       <use xlink:href="#mc4f469d6e4" x="509.236364" y="512.64" style="stroke: #000000; stroke-width: 0.8"/>
      </g>
     </g>
     <g id="text_5">
      <!-- Albumin -->
      <g transform="translate(496.634947 554.118085) rotate(-45) scale(0.1 -0.1)">
       <defs>
        <path id="DejaVuSans-6d" d="M 3328 2828 
Q 3544 3216 3844 3400 
Q 4144 3584 4550 3584 
Q 5097 3584 5394 3201 
Q 5691 2819 5691 2113 
L 5691 0 
L 5113 0 
L 5113 2094 
Q 5113 2597 4934 2840 
Q 4756 3084 4391 3084 
Q 3944 3084 3684 2787 
Q 3425 2491 3425 1978 
L 3425 0 
L 2847 0 
L 2847 2094 
Q 2847 2600 2669 2842 
Q 2491 3084 2119 3084 
Q 1678 3084 1418 2786 
Q 1159 2488 1159 1978 
L 1159 0 
L 581 0 
L 581 3500 
L 1159 3500 
L 1159 2956 
Q 1356 3278 1631 3431 
Q 1906 3584 2284 3584 
Q 2666 3584 2933 3390 
Q 3200 3197 3328 2828 
z
" transform="scale(0.015625)"/>
       </defs>
       <use xlink:href="#DejaVuSans-41"/>
       <use xlink:href="#DejaVuSans-6c" transform="translate(68.408203 0)"/>
       <use xlink:href="#DejaVuSans-62" transform="translate(96.191406 0)"/>
       <use xlink:href="#DejaVuSans-75" transform="translate(159.667969 0)"/>
       <use xlink:href="#DejaVuSans-6d" transform="translate(223.046875 0)"/>
       <use xlink:href="#DejaVuSans-69" transform="translate(320.458984 0)"/>
       <use xlink:href="#DejaVuSans-6e" transform="translate(348.242188 0)"/>
      </g>
     </g>
    </g>
    <g id="xtick_6">
     <g id="line2d_6">
      <g>
       <use xlink:href="#mc4f469d6e4" x="590.4" y="512.64" style="stroke: #000000; stroke-width: 0.8"/>
      </g>
     </g>
     <g id="text_6">
      <!-- Copper -->
      <g transform="translate(579.601154 550.512945) rotate(-45) scale(0.1 -0.1)">
       <defs>
        <path id="DejaVuSans-70" d="M 1159 525 
L 1159 -1331 
L 581 -1331 
L 581 3500 
L 1159 3500 
L 1159 2969 
Q 1341 3281 1617 3432 
Q 1894 3584 2278 3584 
Q 2916 3584 3314 3078 
Q 3713 2572 3713 1747 
Q 3713 922 3314 415 
Q 2916 -91 2278 -91 
Q 1894 -91 1617 61 
Q 1341 213 1159 525 
z
M 3116 1747 
Q 3116 2381 2855 2742 
Q 2594 3103 2138 3103 
Q 1681 3103 1420 2742 
Q 1159 2381 1159 1747 
Q 1159 1113 1420 752 
Q 1681 391 2138 391 
Q 2594 391 2855 752 
Q 3116 1113 3116 1747 
z
" transform="scale(0.015625)"/>
       </defs>
       <use xlink:href="#DejaVuSans-43"/>
       <use xlink:href="#DejaVuSans-6f" transform="translate(69.824219 0)"/>
       <use xlink:href="#DejaVuSans-70" transform="translate(131.005859 0)"/>
       <use xlink:href="#DejaVuSans-70" transform="translate(194.482422 0)"/>
       <use xlink:href="#DejaVuSans-65" transform="translate(257.958984 0)"/>
       <use xlink:href="#DejaVuSans-72" transform="translate(319.482422 0)"/>
      </g>
     </g>
    </g>
    <g id="xtick_7">
     <g id="line2d_7">
      <g>
       <use xlink:href="#mc4f469d6e4" x="671.563636" y="512.64" style="stroke: #000000; stroke-width: 0.8"/>
      </g>
     </g>
     <g id="text_7">
      <!-- Alk_Phos -->
      <g transform="translate(657.823115 556.19963) rotate(-45) scale(0.1 -0.1)">
       <defs>
        <path id="DejaVuSans-6b" d="M 581 4863 
L 1159 4863 
L 1159 1991 
L 2875 3500 
L 3609 3500 
L 1753 1863 
L 3688 0 
L 2938 0 
L 1159 1709 
L 1159 0 
L 581 0 
L 581 4863 
z
" transform="scale(0.015625)"/>
        <path id="DejaVuSans-50" d="M 1259 4147 
L 1259 2394 
L 2053 2394 
Q 2494 2394 2734 2622 
Q 2975 2850 2975 3272 
Q 2975 3691 2734 3919 
Q 2494 4147 2053 4147 
L 1259 4147 
z
M 628 4666 
L 2053 4666 
Q 2838 4666 3239 4311 
Q 3641 3956 3641 3272 
Q 3641 2581 3239 2228 
Q 2838 1875 2053 1875 
L 1259 1875 
L 1259 0 
L 628 0 
L 628 4666 
z
" transform="scale(0.015625)"/>
       </defs>
       <use xlink:href="#DejaVuSans-41"/>
       <use xlink:href="#DejaVuSans-6c" transform="translate(68.408203 0)"/>
       <use xlink:href="#DejaVuSans-6b" transform="translate(96.191406 0)"/>
       <use xlink:href="#DejaVuSans-5f" transform="translate(154.101562 0)"/>
       <use xlink:href="#DejaVuSans-50" transform="translate(204.101562 0)"/>
       <use xlink:href="#DejaVuSans-68" transform="translate(264.404297 0)"/>
       <use xlink:href="#DejaVuSans-6f" transform="translate(327.783203 0)"/>
       <use xlink:href="#DejaVuSans-73" transform="translate(388.964844 0)"/>
      </g>
     </g>
    </g>
    <g id="xtick_8">
     <g id="line2d_8">
      <g>
       <use xlink:href="#mc4f469d6e4" x="752.727273" y="512.64" style="stroke: #000000; stroke-width: 0.8"/>
      </g>
     </g>
     <g id="text_8">
      <!-- SGOT -->
      <g transform="translate(744.751882 544.866034) rotate(-45) scale(0.1 -0.1)">
       <defs>
        <path id="DejaVuSans-53" d="M 3425 4513 
L 3425 3897 
Q 3066 4069 2747 4153 
Q 2428 4238 2131 4238 
Q 1616 4238 1336 4038 
Q 1056 3838 1056 3469 
Q 1056 3159 1242 3001 
Q 1428 2844 1947 2747 
L 2328 2669 
Q 3034 2534 3370 2195 
Q 3706 1856 3706 1288 
Q 3706 609 3251 259 
Q 2797 -91 1919 -91 
Q 1588 -91 1214 -16 
Q 841 59 441 206 
L 441 856 
Q 825 641 1194 531 
Q 1563 422 1919 422 
Q 2459 422 2753 634 
Q 3047 847 3047 1241 
Q 3047 1584 2836 1778 
Q 2625 1972 2144 2069 
L 1759 2144 
Q 1053 2284 737 2584 
Q 422 2884 422 3419 
Q 422 4038 858 4394 
Q 1294 4750 2059 4750 
Q 2388 4750 2728 4690 
Q 3069 4631 3425 4513 
z
" transform="scale(0.015625)"/>
        <path id="DejaVuSans-47" d="M 3809 666 
L 3809 1919 
L 2778 1919 
L 2778 2438 
L 4434 2438 
L 4434 434 
Q 4069 175 3628 42 
Q 3188 -91 2688 -91 
Q 1594 -91 976 548 
Q 359 1188 359 2328 
Q 359 3472 976 4111 
Q 1594 4750 2688 4750 
Q 3144 4750 3555 4637 
Q 3966 4525 4313 4306 
L 4313 3634 
Q 3963 3931 3569 4081 
Q 3175 4231 2741 4231 
Q 1884 4231 1454 3753 
Q 1025 3275 1025 2328 
Q 1025 1384 1454 906 
Q 1884 428 2741 428 
Q 3075 428 3337 486 
Q 3600 544 3809 666 
z
" transform="scale(0.015625)"/>
        <path id="DejaVuSans-4f" d="M 2522 4238 
Q 1834 4238 1429 3725 
Q 1025 3213 1025 2328 
Q 1025 1447 1429 934 
Q 1834 422 2522 422 
Q 3209 422 3611 934 
Q 4013 1447 4013 2328 
Q 4013 3213 3611 3725 
Q 3209 4238 2522 4238 
z
M 2522 4750 
Q 3503 4750 4090 4092 
Q 4678 3434 4678 2328 
Q 4678 1225 4090 567 
Q 3503 -91 2522 -91 
Q 1538 -91 948 565 
Q 359 1222 359 2328 
Q 359 3434 948 4092 
Q 1538 4750 2522 4750 
z
" transform="scale(0.015625)"/>
        <path id="DejaVuSans-54" d="M -19 4666 
L 3928 4666 
L 3928 4134 
L 2272 4134 
L 2272 0 
L 1638 0 
L 1638 4134 
L -19 4134 
L -19 4666 
z
" transform="scale(0.015625)"/>
       </defs>
       <use xlink:href="#DejaVuSans-53"/>
       <use xlink:href="#DejaVuSans-47" transform="translate(63.476562 0)"/>
       <use xlink:href="#DejaVuSans-4f" transform="translate(140.966797 0)"/>
       <use xlink:href="#DejaVuSans-54" transform="translate(219.677734 0)"/>
      </g>
     </g>
    </g>
    <g id="xtick_9">
     <g id="line2d_9">
      <g>
       <use xlink:href="#mc4f469d6e4" x="833.890909" y="512.64" style="stroke: #000000; stroke-width: 0.8"/>
      </g>
     </g>
     <g id="text_9">
      <!-- Tryglicerides -->
      <g transform="translate(813.6323 569.432471) rotate(-45) scale(0.1 -0.1)">
       <defs>
        <path id="DejaVuSans-63" d="M 3122 3366 
L 3122 2828 
Q 2878 2963 2633 3030 
Q 2388 3097 2138 3097 
Q 1578 3097 1268 2742 
Q 959 2388 959 1747 
Q 959 1106 1268 751 
Q 1578 397 2138 397 
Q 2388 397 2633 464 
Q 2878 531 3122 666 
L 3122 134 
Q 2881 22 2623 -34 
Q 2366 -91 2075 -91 
Q 1284 -91 818 406 
Q 353 903 353 1747 
Q 353 2603 823 3093 
Q 1294 3584 2113 3584 
Q 2378 3584 2631 3529 
Q 2884 3475 3122 3366 
z
" transform="scale(0.015625)"/>
        <path id="DejaVuSans-64" d="M 2906 2969 
L 2906 4863 
L 3481 4863 
L 3481 0 
L 2906 0 
L 2906 525 
Q 2725 213 2448 61 
Q 2172 -91 1784 -91 
Q 1150 -91 751 415 
Q 353 922 353 1747 
Q 353 2572 751 3078 
Q 1150 3584 1784 3584 
Q 2172 3584 2448 3432 
Q 2725 3281 2906 2969 
z
M 947 1747 
Q 947 1113 1208 752 
Q 1469 391 1925 391 
Q 2381 391 2643 752 
Q 2906 1113 2906 1747 
Q 2906 2381 2643 2742 
Q 2381 3103 1925 3103 
Q 1469 3103 1208 2742 
Q 947 2381 947 1747 
z
" transform="scale(0.015625)"/>
       </defs>
       <use xlink:href="#DejaVuSans-54"/>
       <use xlink:href="#DejaVuSans-72" transform="translate(46.333984 0)"/>
       <use xlink:href="#DejaVuSans-79" transform="translate(87.447266 0)"/>
       <use xlink:href="#DejaVuSans-67" transform="translate(146.626953 0)"/>
       <use xlink:href="#DejaVuSans-6c" transform="translate(210.103516 0)"/>
       <use xlink:href="#DejaVuSans-69" transform="translate(237.886719 0)"/>
       <use xlink:href="#DejaVuSans-63" transform="translate(265.669922 0)"/>
       <use xlink:href="#DejaVuSans-65" transform="translate(320.650391 0)"/>
       <use xlink:href="#DejaVuSans-72" transform="translate(382.173828 0)"/>
       <use xlink:href="#DejaVuSans-69" transform="translate(423.287109 0)"/>
       <use xlink:href="#DejaVuSans-64" transform="translate(451.070312 0)"/>
       <use xlink:href="#DejaVuSans-65" transform="translate(514.546875 0)"/>
       <use xlink:href="#DejaVuSans-73" transform="translate(576.070312 0)"/>
      </g>
     </g>
    </g>
    <g id="xtick_10">
     <g id="line2d_10">
      <g>
       <use xlink:href="#mc4f469d6e4" x="915.054545" y="512.64" style="stroke: #000000; stroke-width: 0.8"/>
      </g>
     </g>
     <g id="text_10">
      <!-- Platelets -->
      <g transform="translate(901.778063 555.468217) rotate(-45) scale(0.1 -0.1)">
       <use xlink:href="#DejaVuSans-50"/>
       <use xlink:href="#DejaVuSans-6c" transform="translate(60.302734 0)"/>
       <use xlink:href="#DejaVuSans-61" transform="translate(88.085938 0)"/>
       <use xlink:href="#DejaVuSans-74" transform="translate(149.365234 0)"/>
       <use xlink:href="#DejaVuSans-65" transform="translate(188.574219 0)"/>
       <use xlink:href="#DejaVuSans-6c" transform="translate(250.097656 0)"/>
       <use xlink:href="#DejaVuSans-65" transform="translate(277.880859 0)"/>
       <use xlink:href="#DejaVuSans-74" transform="translate(339.404297 0)"/>
       <use xlink:href="#DejaVuSans-73" transform="translate(378.613281 0)"/>
      </g>
     </g>
    </g>
    <g id="xtick_11">
     <g id="line2d_11">
      <g>
       <use xlink:href="#mc4f469d6e4" x="996.218182" y="512.64" style="stroke: #000000; stroke-width: 0.8"/>
      </g>
     </g>
     <g id="text_11">
      <!-- Prothrombin -->
      <g transform="translate(976.48714 568.377335) rotate(-45) scale(0.1 -0.1)">
       <use xlink:href="#DejaVuSans-50"/>
       <use xlink:href="#DejaVuSans-72" transform="translate(58.552734 0)"/>
       <use xlink:href="#DejaVuSans-6f" transform="translate(97.416016 0)"/>
       <use xlink:href="#DejaVuSans-74" transform="translate(158.597656 0)"/>
       <use xlink:href="#DejaVuSans-68" transform="translate(197.806641 0)"/>
       <use xlink:href="#DejaVuSans-72" transform="translate(261.185547 0)"/>
       <use xlink:href="#DejaVuSans-6f" transform="translate(300.048828 0)"/>
       <use xlink:href="#DejaVuSans-6d" transform="translate(361.230469 0)"/>
       <use xlink:href="#DejaVuSans-62" transform="translate(458.642578 0)"/>
       <use xlink:href="#DejaVuSans-69" transform="translate(522.119141 0)"/>
       <use xlink:href="#DejaVuSans-6e" transform="translate(549.902344 0)"/>
      </g>
     </g>
    </g>
    <g id="text_12">
     <!-- Features -->
     <g transform="translate(568.905469 582.501469) scale(0.1 -0.1)">
      <defs>
       <path id="DejaVuSans-46" d="M 628 4666 
L 3309 4666 
L 3309 4134 
L 1259 4134 
L 1259 2759 
L 3109 2759 
L 3109 2228 
L 1259 2228 
L 1259 0 
L 628 0 
L 628 4666 
z
" transform="scale(0.015625)"/>
      </defs>
      <use xlink:href="#DejaVuSans-46"/>
      <use xlink:href="#DejaVuSans-65" transform="translate(52.019531 0)"/>
      <use xlink:href="#DejaVuSans-61" transform="translate(113.542969 0)"/>
      <use xlink:href="#DejaVuSans-74" transform="translate(174.822266 0)"/>
      <use xlink:href="#DejaVuSans-75" transform="translate(214.03125 0)"/>
      <use xlink:href="#DejaVuSans-72" transform="translate(277.410156 0)"/>
      <use xlink:href="#DejaVuSans-65" transform="translate(316.273438 0)"/>
      <use xlink:href="#DejaVuSans-73" transform="translate(377.796875 0)"/>
     </g>
    </g>
   </g>
   <g id="matplotlib.axis_2">
    <g id="ytick_1">
     <g id="line2d_12">
      <defs>
       <path id="m26d0332b45" d="M 0 0 
L -3.5 0 
" style="stroke: #000000; stroke-width: 0.8"/>
      </defs>
      <g>
       <use xlink:href="#m26d0332b45" x="144" y="502.560625" style="stroke: #000000; stroke-width: 0.8"/>
      </g>
     </g>
     <g id="text_13">
      <!-- −4 -->
      <g transform="translate(122.257812 506.359844) scale(0.1 -0.1)">
       <defs>
        <path id="DejaVuSans-2212" d="M 678 2272 
L 4684 2272 
L 4684 1741 
L 678 1741 
L 678 2272 
z
" transform="scale(0.015625)"/>
        <path id="DejaVuSans-34" d="M 2419 4116 
L 825 1625 
L 2419 1625 
L 2419 4116 
z
M 2253 4666 
L 3047 4666 
L 3047 1625 
L 3713 1625 
L 3713 1100 
L 3047 1100 
L 3047 0 
L 2419 0 
L 2419 1100 
L 313 1100 
L 313 1709 
L 2253 4666 
z
" transform="scale(0.015625)"/>
       </defs>
       <use xlink:href="#DejaVuSans-2212"/>
       <use xlink:href="#DejaVuSans-34" transform="translate(83.789062 0)"/>
      </g>
     </g>
    </g>
    <g id="ytick_2">
     <g id="line2d_13">
      <g>
       <use xlink:href="#m26d0332b45" x="144" y="430.243915" style="stroke: #000000; stroke-width: 0.8"/>
      </g>
     </g>
     <g id="text_14">
      <!-- −2 -->
      <g transform="translate(122.257812 434.043133) scale(0.1 -0.1)">
       <defs>
        <path id="DejaVuSans-32" d="M 1228 531 
L 3431 531 
L 3431 0 
L 469 0 
L 469 531 
Q 828 903 1448 1529 
Q 2069 2156 2228 2338 
Q 2531 2678 2651 2914 
Q 2772 3150 2772 3378 
Q 2772 3750 2511 3984 
Q 2250 4219 1831 4219 
Q 1534 4219 1204 4116 
Q 875 4013 500 3803 
L 500 4441 
Q 881 4594 1212 4672 
Q 1544 4750 1819 4750 
Q 2544 4750 2975 4387 
Q 3406 4025 3406 3419 
Q 3406 3131 3298 2873 
Q 3191 2616 2906 2266 
Q 2828 2175 2409 1742 
Q 1991 1309 1228 531 
z
" transform="scale(0.015625)"/>
       </defs>
       <use xlink:href="#DejaVuSans-2212"/>
       <use xlink:href="#DejaVuSans-32" transform="translate(83.789062 0)"/>
      </g>
     </g>
    </g>
    <g id="ytick_3">
     <g id="line2d_14">
      <g>
       <use xlink:href="#m26d0332b45" x="144" y="357.927204" style="stroke: #000000; stroke-width: 0.8"/>
      </g>
     </g>
     <g id="text_15">
      <!-- 0 -->
      <g transform="translate(130.6375 361.726423) scale(0.1 -0.1)">
       <defs>
        <path id="DejaVuSans-30" d="M 2034 4250 
Q 1547 4250 1301 3770 
Q 1056 3291 1056 2328 
Q 1056 1369 1301 889 
Q 1547 409 2034 409 
Q 2525 409 2770 889 
Q 3016 1369 3016 2328 
Q 3016 3291 2770 3770 
Q 2525 4250 2034 4250 
z
M 2034 4750 
Q 2819 4750 3233 4129 
Q 3647 3509 3647 2328 
Q 3647 1150 3233 529 
Q 2819 -91 2034 -91 
Q 1250 -91 836 529 
Q 422 1150 422 2328 
Q 422 3509 836 4129 
Q 1250 4750 2034 4750 
z
" transform="scale(0.015625)"/>
       </defs>
       <use xlink:href="#DejaVuSans-30"/>
      </g>
     </g>
    </g>
    <g id="ytick_4">
     <g id="line2d_15">
      <g>
       <use xlink:href="#m26d0332b45" x="144" y="285.610494" style="stroke: #000000; stroke-width: 0.8"/>
      </g>
     </g>
     <g id="text_16">
      <!-- 2 -->
      <g transform="translate(130.6375 289.409713) scale(0.1 -0.1)">
       <use xlink:href="#DejaVuSans-32"/>
      </g>
     </g>
    </g>
    <g id="ytick_5">
     <g id="line2d_16">
      <g>
       <use xlink:href="#m26d0332b45" x="144" y="213.293784" style="stroke: #000000; stroke-width: 0.8"/>
      </g>
     </g>
     <g id="text_17">
      <!-- 4 -->
      <g transform="translate(130.6375 217.093003) scale(0.1 -0.1)">
       <use xlink:href="#DejaVuSans-34"/>
      </g>
     </g>
    </g>
    <g id="ytick_6">
     <g id="line2d_17">
      <g>
       <use xlink:href="#m26d0332b45" x="144" y="140.977074" style="stroke: #000000; stroke-width: 0.8"/>
      </g>
     </g>
     <g id="text_18">
      <!-- 6 -->
      <g transform="translate(130.6375 144.776292) scale(0.1 -0.1)">
       <defs>
        <path id="DejaVuSans-36" d="M 2113 2584 
Q 1688 2584 1439 2293 
Q 1191 2003 1191 1497 
Q 1191 994 1439 701 
Q 1688 409 2113 409 
Q 2538 409 2786 701 
Q 3034 994 3034 1497 
Q 3034 2003 2786 2293 
Q 2538 2584 2113 2584 
z
M 3366 4563 
L 3366 3988 
Q 3128 4100 2886 4159 
Q 2644 4219 2406 4219 
Q 1781 4219 1451 3797 
Q 1122 3375 1075 2522 
Q 1259 2794 1537 2939 
Q 1816 3084 2150 3084 
Q 2853 3084 3261 2657 
Q 3669 2231 3669 1497 
Q 3669 778 3244 343 
Q 2819 -91 2113 -91 
Q 1303 -91 875 529 
Q 447 1150 447 2328 
Q 447 3434 972 4092 
Q 1497 4750 2381 4750 
Q 2619 4750 2861 4703 
Q 3103 4656 3366 4563 
z
" transform="scale(0.015625)"/>
       </defs>
       <use xlink:href="#DejaVuSans-36"/>
      </g>
     </g>
    </g>
    <g id="text_19">
     <!-- Value Range -->
     <g transform="translate(116.178125 322.045625) rotate(-90) scale(0.1 -0.1)">
      <defs>
       <path id="DejaVuSans-56" d="M 1831 0 
L 50 4666 
L 709 4666 
L 2188 738 
L 3669 4666 
L 4325 4666 
L 2547 0 
L 1831 0 
z
" transform="scale(0.015625)"/>
       <path id="DejaVuSans-20" transform="scale(0.015625)"/>
       <path id="DejaVuSans-52" d="M 2841 2188 
Q 3044 2119 3236 1894 
Q 3428 1669 3622 1275 
L 4263 0 
L 3584 0 
L 2988 1197 
Q 2756 1666 2539 1819 
Q 2322 1972 1947 1972 
L 1259 1972 
L 1259 0 
L 628 0 
L 628 4666 
L 2053 4666 
Q 2853 4666 3247 4331 
Q 3641 3997 3641 3322 
Q 3641 2881 3436 2590 
Q 3231 2300 2841 2188 
z
M 1259 4147 
L 1259 2491 
L 2053 2491 
Q 2509 2491 2742 2702 
Q 2975 2913 2975 3322 
Q 2975 3731 2742 3939 
Q 2509 4147 2053 4147 
L 1259 4147 
z
" transform="scale(0.015625)"/>
      </defs>
      <use xlink:href="#DejaVuSans-56"/>
      <use xlink:href="#DejaVuSans-61" transform="translate(60.658203 0)"/>
      <use xlink:href="#DejaVuSans-6c" transform="translate(121.9375 0)"/>
      <use xlink:href="#DejaVuSans-75" transform="translate(149.720703 0)"/>
      <use xlink:href="#DejaVuSans-65" transform="translate(213.099609 0)"/>
      <use xlink:href="#DejaVuSans-20" transform="translate(274.623047 0)"/>
      <use xlink:href="#DejaVuSans-52" transform="translate(306.410156 0)"/>
      <use xlink:href="#DejaVuSans-61" transform="translate(373.642578 0)"/>
      <use xlink:href="#DejaVuSans-6e" transform="translate(434.921875 0)"/>
      <use xlink:href="#DejaVuSans-67" transform="translate(498.300781 0)"/>
      <use xlink:href="#DejaVuSans-65" transform="translate(561.777344 0)"/>
     </g>
    </g>
   </g>
   <g id="patch_3">
    <path d="M 152.116364 384.215836 
L 217.047273 384.215836 
L 217.047273 335.651833 
L 152.116364 335.651833 
L 152.116364 384.215836 
z
" clip-path="url(#p0588abbb67)" style="fill: #e68193; stroke: #414141; stroke-linejoin: miter"/>
   </g>
   <g id="line2d_18">
    <path d="M 184.581818 384.215836 
L 184.581818 421.293747 
" clip-path="url(#p0588abbb67)" style="fill: none; stroke: #414141"/>
   </g>
   <g id="line2d_19">
    <path d="M 184.581818 335.651833 
L 184.581818 275.722644 
" clip-path="url(#p0588abbb67)" style="fill: none; stroke: #414141"/>
   </g>
   <g id="line2d_20">
    <path d="M 168.349091 421.293747 
L 200.814545 421.293747 
" clip-path="url(#p0588abbb67)" style="fill: none; stroke: #414141; stroke-linecap: square"/>
   </g>
   <g id="line2d_21">
    <path d="M 168.349091 275.722644 
L 200.814545 275.722644 
" clip-path="url(#p0588abbb67)" style="fill: none; stroke: #414141; stroke-linecap: square"/>
   </g>
   <g id="line2d_22"/>
   <g id="patch_4">
    <path d="M 233.28 384.556225 
L 298.210909 384.556225 
L 298.210909 335.010295 
L 233.28 335.010295 
L 233.28 384.556225 
z
" clip-path="url(#p0588abbb67)" style="fill: #cb8748; stroke: #414141; stroke-linejoin: miter"/>
   </g>
   <g id="line2d_23">
    <path d="M 265.745455 384.556225 
L 265.745455 439.185831 
" clip-path="url(#p0588abbb67)" style="fill: none; stroke: #414141"/>
   </g>
   <g id="line2d_24">
    <path d="M 265.745455 335.010295 
L 265.745455 266.575111 
" clip-path="url(#p0588abbb67)" style="fill: none; stroke: #414141"/>
   </g>
   <g id="line2d_25">
    <path d="M 249.512727 439.185831 
L 281.978182 439.185831 
" clip-path="url(#p0588abbb67)" style="fill: none; stroke: #414141; stroke-linecap: square"/>
   </g>
   <g id="line2d_26">
    <path d="M 249.512727 266.575111 
L 281.978182 266.575111 
" clip-path="url(#p0588abbb67)" style="fill: none; stroke: #414141; stroke-linecap: square"/>
   </g>
   <g id="line2d_27">
    <defs>
     <path id="m26d30b853f" d="M 0 3 
C 0.795609 3 1.55874 2.683901 2.12132 2.12132 
C 2.683901 1.55874 3 0.795609 3 0 
C 3 -0.795609 2.683901 -1.55874 2.12132 -2.12132 
C 1.55874 -2.683901 0.795609 -3 0 -3 
C -0.795609 -3 -1.55874 -2.683901 -2.12132 -2.12132 
C -2.683901 -1.55874 -3 -0.795609 -3 0 
C -3 0.795609 -2.683901 1.55874 -2.12132 2.12132 
C -1.55874 2.683901 -0.795609 3 0 3 
z
" style="stroke: #414141"/>
    </defs>
    <g clip-path="url(#p0588abbb67)">
     <use xlink:href="#m26d30b853f" x="265.745455" y="260.652746" style="fill-opacity: 0; stroke: #414141"/>
    </g>
   </g>
   <g id="patch_5">
    <path d="M 314.443636 377.561782 
L 379.374545 377.561782 
L 379.374545 356.576895 
L 314.443636 356.576895 
L 314.443636 377.561782 
z
" clip-path="url(#p0588abbb67)" style="fill: #a59042; stroke: #414141; stroke-linejoin: miter"/>
   </g>
   <g id="line2d_28">
    <path d="M 346.909091 377.561782 
L 346.909091 381.558904 
" clip-path="url(#p0588abbb67)" style="fill: none; stroke: #414141"/>
   </g>
   <g id="line2d_29">
    <path d="M 346.909091 356.576895 
L 346.909091 325.599204 
" clip-path="url(#p0588abbb67)" style="fill: none; stroke: #414141"/>
   </g>
   <g id="line2d_30">
    <path d="M 330.676364 381.558904 
L 363.141818 381.558904 
" clip-path="url(#p0588abbb67)" style="fill: none; stroke: #414141; stroke-linecap: square"/>
   </g>
   <g id="line2d_31">
    <path d="M 330.676364 325.599204 
L 363.141818 325.599204 
" clip-path="url(#p0588abbb67)" style="fill: none; stroke: #414141; stroke-linecap: square"/>
   </g>
   <g id="line2d_32">
    <g clip-path="url(#p0588abbb67)">
     <use xlink:href="#m26d30b853f" x="346.909091" y="268.040655" style="fill-opacity: 0; stroke: #414141"/>
     <use xlink:href="#m26d30b853f" x="346.909091" y="283.229717" style="fill-opacity: 0; stroke: #414141"/>
     <use xlink:href="#m26d30b853f" x="346.909091" y="292.822808" style="fill-opacity: 0; stroke: #414141"/>
     <use xlink:href="#m26d30b853f" x="346.909091" y="244.857351" style="fill-opacity: 0; stroke: #414141"/>
     <use xlink:href="#m26d30b853f" x="346.909091" y="211.281531" style="fill-opacity: 0; stroke: #414141"/>
     <use xlink:href="#m26d30b853f" x="346.909091" y="246.4562" style="fill-opacity: 0; stroke: #414141"/>
     <use xlink:href="#m26d30b853f" x="346.909091" y="204.086713" style="fill-opacity: 0; stroke: #414141"/>
     <use xlink:href="#m26d30b853f" x="346.909091" y="224.07232" style="fill-opacity: 0; stroke: #414141"/>
     <use xlink:href="#m26d30b853f" x="346.909091" y="316.805537" style="fill-opacity: 0; stroke: #414141"/>
     <use xlink:href="#m26d30b853f" x="346.909091" y="247.255624" style="fill-opacity: 0; stroke: #414141"/>
     <use xlink:href="#m26d30b853f" x="346.909091" y="286.427414" style="fill-opacity: 0; stroke: #414141"/>
     <use xlink:href="#m26d30b853f" x="346.909091" y="268.84008" style="fill-opacity: 0; stroke: #414141"/>
     <use xlink:href="#m26d30b853f" x="346.909091" y="244.857351" style="fill-opacity: 0; stroke: #414141"/>
     <use xlink:href="#m26d30b853f" x="346.909091" y="254.450443" style="fill-opacity: 0; stroke: #414141"/>
     <use xlink:href="#m26d30b853f" x="346.909091" y="244.857351" style="fill-opacity: 0; stroke: #414141"/>
     <use xlink:href="#m26d30b853f" x="346.909091" y="160.118377" style="fill-opacity: 0; stroke: #414141"/>
     <use xlink:href="#m26d30b853f" x="346.909091" y="180.103984" style="fill-opacity: 0; stroke: #414141"/>
     <use xlink:href="#m26d30b853f" x="346.909091" y="316.006112" style="fill-opacity: 0; stroke: #414141"/>
     <use xlink:href="#m26d30b853f" x="346.909091" y="296.020505" style="fill-opacity: 0; stroke: #414141"/>
     <use xlink:href="#m26d30b853f" x="346.909091" y="272.037777" style="fill-opacity: 0; stroke: #414141"/>
     <use xlink:href="#m26d30b853f" x="346.909091" y="188.098227" style="fill-opacity: 0; stroke: #414141"/>
     <use xlink:href="#m26d30b853f" x="346.909091" y="297.619354" style="fill-opacity: 0; stroke: #414141"/>
     <use xlink:href="#m26d30b853f" x="346.909091" y="292.822808" style="fill-opacity: 0; stroke: #414141"/>
     <use xlink:href="#m26d30b853f" x="346.909091" y="271.238353" style="fill-opacity: 0; stroke: #414141"/>
     <use xlink:href="#m26d30b853f" x="346.909091" y="280.03202" style="fill-opacity: 0; stroke: #414141"/>
     <use xlink:href="#m26d30b853f" x="346.909091" y="320.003234" style="fill-opacity: 0; stroke: #414141"/>
     <use xlink:href="#m26d30b853f" x="346.909091" y="240.86023" style="fill-opacity: 0; stroke: #414141"/>
     <use xlink:href="#m26d30b853f" x="346.909091" y="314.407264" style="fill-opacity: 0; stroke: #414141"/>
     <use xlink:href="#m26d30b853f" x="346.909091" y="315.206688" style="fill-opacity: 0; stroke: #414141"/>
     <use xlink:href="#m26d30b853f" x="346.909091" y="316.006112" style="fill-opacity: 0; stroke: #414141"/>
    </g>
   </g>
   <g id="patch_6">
    <path d="M 395.607273 376.532657 
L 460.538182 376.532657 
L 460.538182 352.695824 
L 395.607273 352.695824 
L 395.607273 376.532657 
z
" clip-path="url(#p0588abbb67)" style="fill: #839840; stroke: #414141; stroke-linejoin: miter"/>
   </g>
   <g id="line2d_33">
    <path d="M 428.072727 376.532657 
L 428.072727 398.099316 
" clip-path="url(#p0588abbb67)" style="fill: none; stroke: #414141"/>
   </g>
   <g id="line2d_34">
    <path d="M 428.072727 352.695824 
L 428.072727 317.994584 
" clip-path="url(#p0588abbb67)" style="fill: none; stroke: #414141"/>
   </g>
   <g id="line2d_35">
    <path d="M 411.84 398.099316 
L 444.305455 398.099316 
" clip-path="url(#p0588abbb67)" style="fill: none; stroke: #414141; stroke-linecap: square"/>
   </g>
   <g id="line2d_36">
    <path d="M 411.84 317.994584 
L 444.305455 317.994584 
" clip-path="url(#p0588abbb67)" style="fill: none; stroke: #414141; stroke-linecap: square"/>
   </g>
   <g id="line2d_37">
    <g clip-path="url(#p0588abbb67)">
     <use xlink:href="#m26d30b853f" x="428.072727" y="234.646746" style="fill-opacity: 0; stroke: #414141"/>
     <use xlink:href="#m26d30b853f" x="428.072727" y="266.42919" style="fill-opacity: 0; stroke: #414141"/>
     <use xlink:href="#m26d30b853f" x="428.072727" y="311.832682" style="fill-opacity: 0; stroke: #414141"/>
     <use xlink:href="#m26d30b853f" x="428.072727" y="308.265265" style="fill-opacity: 0; stroke: #414141"/>
     <use xlink:href="#m26d30b853f" x="428.072727" y="158.109432" style="fill-opacity: 0; stroke: #414141"/>
     <use xlink:href="#m26d30b853f" x="428.072727" y="310.535439" style="fill-opacity: 0; stroke: #414141"/>
     <use xlink:href="#m26d30b853f" x="428.072727" y="263.510394" style="fill-opacity: 0; stroke: #414141"/>
     <use xlink:href="#m26d30b853f" x="428.072727" y="314.427167" style="fill-opacity: 0; stroke: #414141"/>
     <use xlink:href="#m26d30b853f" x="428.072727" y="129.73225" style="fill-opacity: 0; stroke: #414141"/>
     <use xlink:href="#m26d30b853f" x="428.072727" y="252.970298" style="fill-opacity: 0; stroke: #414141"/>
     <use xlink:href="#m26d30b853f" x="428.072727" y="177.568071" style="fill-opacity: 0; stroke: #414141"/>
     <use xlink:href="#m26d30b853f" x="428.072727" y="308.265265" style="fill-opacity: 0; stroke: #414141"/>
     <use xlink:href="#m26d30b853f" x="428.072727" y="286.536451" style="fill-opacity: 0; stroke: #414141"/>
     <use xlink:href="#m26d30b853f" x="428.072727" y="240.484338" style="fill-opacity: 0; stroke: #414141"/>
     <use xlink:href="#m26d30b853f" x="428.072727" y="266.42919" style="fill-opacity: 0; stroke: #414141"/>
     <use xlink:href="#m26d30b853f" x="428.072727" y="210.647758" style="fill-opacity: 0; stroke: #414141"/>
     <use xlink:href="#m26d30b853f" x="428.072727" y="200.918438" style="fill-opacity: 0; stroke: #414141"/>
     <use xlink:href="#m26d30b853f" x="428.072727" y="139.948035" style="fill-opacity: 0; stroke: #414141"/>
     <use xlink:href="#m26d30b853f" x="428.072727" y="255.402628" style="fill-opacity: 0; stroke: #414141"/>
     <use xlink:href="#m26d30b853f" x="428.072727" y="312.805614" style="fill-opacity: 0; stroke: #414141"/>
    </g>
   </g>
   <g id="patch_7">
    <path d="M 476.770909 376.040081 
L 541.701818 376.040081 
L 541.701818 333.776703 
L 476.770909 333.776703 
L 476.770909 376.040081 
z
" clip-path="url(#p0588abbb67)" style="fill: #42a25f; stroke: #414141; stroke-linejoin: miter"/>
   </g>
   <g id="line2d_38">
    <path d="M 509.236364 376.040081 
L 509.236364 437.278853 
" clip-path="url(#p0588abbb67)" style="fill: none; stroke: #414141"/>
   </g>
   <g id="line2d_39">
    <path d="M 509.236364 333.776703 
L 509.236364 271.675412 
" clip-path="url(#p0588abbb67)" style="fill: none; stroke: #414141"/>
   </g>
   <g id="line2d_40">
    <path d="M 493.003636 437.278853 
L 525.469091 437.278853 
" clip-path="url(#p0588abbb67)" style="fill: none; stroke: #414141; stroke-linecap: square"/>
   </g>
   <g id="line2d_41">
    <path d="M 493.003636 271.675412 
L 525.469091 271.675412 
" clip-path="url(#p0588abbb67)" style="fill: none; stroke: #414141; stroke-linecap: square"/>
   </g>
   <g id="line2d_42">
    <g clip-path="url(#p0588abbb67)">
     <use xlink:href="#m26d30b853f" x="509.236364" y="442.453961" style="fill-opacity: 0; stroke: #414141"/>
     <use xlink:href="#m26d30b853f" x="509.236364" y="465.741944" style="fill-opacity: 0; stroke: #414141"/>
     <use xlink:href="#m26d30b853f" x="509.236364" y="442.453961" style="fill-opacity: 0; stroke: #414141"/>
     <use xlink:href="#m26d30b853f" x="509.236364" y="443.316479" style="fill-opacity: 0; stroke: #414141"/>
     <use xlink:href="#m26d30b853f" x="509.236364" y="440.728925" style="fill-opacity: 0; stroke: #414141"/>
     <use xlink:href="#m26d30b853f" x="509.236364" y="451.941658" style="fill-opacity: 0; stroke: #414141"/>
     <use xlink:href="#m26d30b853f" x="509.236364" y="492.48" style="fill-opacity: 0; stroke: #414141"/>
     <use xlink:href="#m26d30b853f" x="509.236364" y="460.566837" style="fill-opacity: 0; stroke: #414141"/>
     <use xlink:href="#m26d30b853f" x="509.236364" y="480.404749" style="fill-opacity: 0; stroke: #414141"/>
     <use xlink:href="#m26d30b853f" x="509.236364" y="469.192016" style="fill-opacity: 0; stroke: #414141"/>
     <use xlink:href="#m26d30b853f" x="509.236364" y="261.325197" style="fill-opacity: 0; stroke: #414141"/>
    </g>
   </g>
   <g id="patch_8">
    <path d="M 557.934545 381.755145 
L 622.865455 381.755145 
L 622.865455 347.302955 
L 557.934545 347.302955 
L 557.934545 381.755145 
z
" clip-path="url(#p0588abbb67)" style="fill: #449f8c; stroke: #414141; stroke-linejoin: miter"/>
   </g>
   <g id="line2d_43">
    <path d="M 590.4 381.755145 
L 590.4 397.713062 
" clip-path="url(#p0588abbb67)" style="fill: none; stroke: #414141"/>
   </g>
   <g id="line2d_44">
    <path d="M 590.4 347.302955 
L 590.4 296.681486 
" clip-path="url(#p0588abbb67)" style="fill: none; stroke: #414141"/>
   </g>
   <g id="line2d_45">
    <path d="M 574.167273 397.713062 
L 606.632727 397.713062 
" clip-path="url(#p0588abbb67)" style="fill: none; stroke: #414141; stroke-linecap: square"/>
   </g>
   <g id="line2d_46">
    <path d="M 574.167273 296.681486 
L 606.632727 296.681486 
" clip-path="url(#p0588abbb67)" style="fill: none; stroke: #414141; stroke-linecap: square"/>
   </g>
   <g id="line2d_47">
    <g clip-path="url(#p0588abbb67)">
     <use xlink:href="#m26d30b853f" x="590.4" y="150.840928" style="fill-opacity: 0; stroke: #414141"/>
     <use xlink:href="#m26d30b853f" x="590.4" y="203.258984" style="fill-opacity: 0; stroke: #414141"/>
     <use xlink:href="#m26d30b853f" x="590.4" y="163.522716" style="fill-opacity: 0; stroke: #414141"/>
     <use xlink:href="#m26d30b853f" x="590.4" y="280.617889" style="fill-opacity: 0; stroke: #414141"/>
     <use xlink:href="#m26d30b853f" x="590.4" y="288.649687" style="fill-opacity: 0; stroke: #414141"/>
     <use xlink:href="#m26d30b853f" x="590.4" y="281.040615" style="fill-opacity: 0; stroke: #414141"/>
     <use xlink:href="#m26d30b853f" x="590.4" y="285.690604" style="fill-opacity: 0; stroke: #414141"/>
     <use xlink:href="#m26d30b853f" x="590.4" y="211.713509" style="fill-opacity: 0; stroke: #414141"/>
     <use xlink:href="#m26d30b853f" x="590.4" y="288.649687" style="fill-opacity: 0; stroke: #414141"/>
     <use xlink:href="#m26d30b853f" x="590.4" y="294.990581" style="fill-opacity: 0; stroke: #414141"/>
     <use xlink:href="#m26d30b853f" x="590.4" y="276.813352" style="fill-opacity: 0; stroke: #414141"/>
     <use xlink:href="#m26d30b853f" x="590.4" y="248.067967" style="fill-opacity: 0; stroke: #414141"/>
     <use xlink:href="#m26d30b853f" x="590.4" y="293.299676" style="fill-opacity: 0; stroke: #414141"/>
     <use xlink:href="#m26d30b853f" x="590.4" y="286.536056" style="fill-opacity: 0; stroke: #414141"/>
     <use xlink:href="#m26d30b853f" x="590.4" y="225.240749" style="fill-opacity: 0; stroke: #414141"/>
     <use xlink:href="#m26d30b853f" x="590.4" y="269.20428" style="fill-opacity: 0; stroke: #414141"/>
     <use xlink:href="#m26d30b853f" x="590.4" y="238.767989" style="fill-opacity: 0; stroke: #414141"/>
    </g>
   </g>
   <g id="patch_9">
    <path d="M 639.098182 376.728511 
L 704.029091 376.728511 
L 704.029091 357.972141 
L 639.098182 357.972141 
L 639.098182 376.728511 
z
" clip-path="url(#p0588abbb67)" style="fill: #469ea3; stroke: #414141; stroke-linejoin: miter"/>
   </g>
   <g id="line2d_48">
    <path d="M 671.563636 376.728511 
L 671.563636 386.5847 
" clip-path="url(#p0588abbb67)" style="fill: none; stroke: #414141"/>
   </g>
   <g id="line2d_49">
    <path d="M 671.563636 357.972141 
L 671.563636 332.083782 
" clip-path="url(#p0588abbb67)" style="fill: none; stroke: #414141"/>
   </g>
   <g id="line2d_50">
    <path d="M 655.330909 386.5847 
L 687.796364 386.5847 
" clip-path="url(#p0588abbb67)" style="fill: none; stroke: #414141; stroke-linecap: square"/>
   </g>
   <g id="line2d_51">
    <path d="M 655.330909 332.083782 
L 687.796364 332.083782 
" clip-path="url(#p0588abbb67)" style="fill: none; stroke: #414141; stroke-linecap: square"/>
   </g>
   <g id="line2d_52">
    <g clip-path="url(#p0588abbb67)">
     <use xlink:href="#m26d30b853f" x="671.563636" y="266.351039" style="fill-opacity: 0; stroke: #414141"/>
     <use xlink:href="#m26d30b853f" x="671.563636" y="287.89083" style="fill-opacity: 0; stroke: #414141"/>
     <use xlink:href="#m26d30b853f" x="671.563636" y="312.774112" style="fill-opacity: 0; stroke: #414141"/>
     <use xlink:href="#m26d30b853f" x="671.563636" y="239.024437" style="fill-opacity: 0; stroke: #414141"/>
     <use xlink:href="#m26d30b853f" x="671.563636" y="288.855299" style="fill-opacity: 0; stroke: #414141"/>
     <use xlink:href="#m26d30b853f" x="671.563636" y="294.706406" style="fill-opacity: 0; stroke: #414141"/>
     <use xlink:href="#m26d30b853f" x="671.563636" y="328.912881" style="fill-opacity: 0; stroke: #414141"/>
     <use xlink:href="#m26d30b853f" x="671.563636" y="292.77747" style="fill-opacity: 0; stroke: #414141"/>
     <use xlink:href="#m26d30b853f" x="671.563636" y="268.344273" style="fill-opacity: 0; stroke: #414141"/>
     <use xlink:href="#m26d30b853f" x="671.563636" y="223.400051" style="fill-opacity: 0; stroke: #414141"/>
     <use xlink:href="#m26d30b853f" x="671.563636" y="268.344273" style="fill-opacity: 0; stroke: #414141"/>
     <use xlink:href="#m26d30b853f" x="671.563636" y="184.049745" style="fill-opacity: 0; stroke: #414141"/>
     <use xlink:href="#m26d30b853f" x="671.563636" y="274.195381" style="fill-opacity: 0; stroke: #414141"/>
     <use xlink:href="#m26d30b853f" x="671.563636" y="238.059969" style="fill-opacity: 0; stroke: #414141"/>
     <use xlink:href="#m26d30b853f" x="671.563636" y="204.560771" style="fill-opacity: 0; stroke: #414141"/>
     <use xlink:href="#m26d30b853f" x="671.563636" y="242.946608" style="fill-opacity: 0; stroke: #414141"/>
     <use xlink:href="#m26d30b853f" x="671.563636" y="299.593045" style="fill-opacity: 0; stroke: #414141"/>
     <use xlink:href="#m26d30b853f" x="671.563636" y="196.009152" style="fill-opacity: 0; stroke: #414141"/>
     <use xlink:href="#m26d30b853f" x="671.563636" y="215.555709" style="fill-opacity: 0; stroke: #414141"/>
     <use xlink:href="#m26d30b853f" x="671.563636" y="318.175134" style="fill-opacity: 0; stroke: #414141"/>
     <use xlink:href="#m26d30b853f" x="671.563636" y="305.444153" style="fill-opacity: 0; stroke: #414141"/>
     <use xlink:href="#m26d30b853f" x="671.563636" y="282.232616" style="fill-opacity: 0; stroke: #414141"/>
     <use xlink:href="#m26d30b853f" x="671.563636" y="298.628577" style="fill-opacity: 0; stroke: #414141"/>
     <use xlink:href="#m26d30b853f" x="671.563636" y="219.47788" style="fill-opacity: 0; stroke: #414141"/>
     <use xlink:href="#m26d30b853f" x="671.563636" y="156.916038" style="fill-opacity: 0; stroke: #414141"/>
     <use xlink:href="#m26d30b853f" x="671.563636" y="199.931323" style="fill-opacity: 0; stroke: #414141"/>
     <use xlink:href="#m26d30b853f" x="671.563636" y="291.813001" style="fill-opacity: 0; stroke: #414141"/>
     <use xlink:href="#m26d30b853f" x="671.563636" y="262.493166" style="fill-opacity: 0; stroke: #414141"/>
     <use xlink:href="#m26d30b853f" x="671.563636" y="300.171726" style="fill-opacity: 0; stroke: #414141"/>
     <use xlink:href="#m26d30b853f" x="671.563636" y="325.552471" style="fill-opacity: 0; stroke: #414141"/>
     <use xlink:href="#m26d30b853f" x="671.563636" y="326.5677" style="fill-opacity: 0; stroke: #414141"/>
     <use xlink:href="#m26d30b853f" x="671.563636" y="328.192068" style="fill-opacity: 0; stroke: #414141"/>
     <use xlink:href="#m26d30b853f" x="671.563636" y="301.796094" style="fill-opacity: 0; stroke: #414141"/>
     <use xlink:href="#m26d30b853f" x="671.563636" y="329.190377" style="fill-opacity: 0; stroke: #414141"/>
     <use xlink:href="#m26d30b853f" x="671.563636" y="303.758872" style="fill-opacity: 0; stroke: #414141"/>
    </g>
   </g>
   <g id="patch_10">
    <path d="M 720.261818 384.726539 
L 785.192727 384.726539 
L 785.192727 339.184142 
L 720.261818 339.184142 
L 720.261818 384.726539 
z
" clip-path="url(#p0588abbb67)" style="fill: #4d9fc3; stroke: #414141; stroke-linejoin: miter"/>
   </g>
   <g id="line2d_53">
    <path d="M 752.727273 384.726539 
L 752.727273 419.378362 
" clip-path="url(#p0588abbb67)" style="fill: none; stroke: #414141"/>
   </g>
   <g id="line2d_54">
    <path d="M 752.727273 339.184142 
L 752.727273 278.790965 
" clip-path="url(#p0588abbb67)" style="fill: none; stroke: #414141"/>
   </g>
   <g id="line2d_55">
    <path d="M 736.494545 419.378362 
L 768.96 419.378362 
" clip-path="url(#p0588abbb67)" style="fill: none; stroke: #414141; stroke-linecap: square"/>
   </g>
   <g id="line2d_56">
    <path d="M 736.494545 278.790965 
L 768.96 278.790965 
" clip-path="url(#p0588abbb67)" style="fill: none; stroke: #414141; stroke-linecap: square"/>
   </g>
   <g id="line2d_57">
    <g clip-path="url(#p0588abbb67)">
     <use xlink:href="#m26d30b853f" x="752.727273" y="257.009819" style="fill-opacity: 0; stroke: #414141"/>
     <use xlink:href="#m26d30b853f" x="752.727273" y="226.318204" style="fill-opacity: 0; stroke: #414141"/>
     <use xlink:href="#m26d30b853f" x="752.727273" y="245.129194" style="fill-opacity: 0; stroke: #414141"/>
     <use xlink:href="#m26d30b853f" x="752.727273" y="144.14388" style="fill-opacity: 0; stroke: #414141"/>
     <use xlink:href="#m26d30b853f" x="752.727273" y="261.960079" style="fill-opacity: 0; stroke: #414141"/>
     <use xlink:href="#m26d30b853f" x="752.727273" y="220.314017" style="fill-opacity: 0; stroke: #414141"/>
     <use xlink:href="#m26d30b853f" x="752.727273" y="252.251181" style="fill-opacity: 0; stroke: #414141"/>
    </g>
   </g>
   <g id="patch_11">
    <path d="M 801.425455 379.631778 
L 866.356364 379.631778 
L 866.356364 345.982208 
L 801.425455 345.982208 
L 801.425455 379.631778 
z
" clip-path="url(#p0588abbb67)" style="fill: #9b9fe8; stroke: #414141; stroke-linejoin: miter"/>
   </g>
   <g id="line2d_58">
    <path d="M 833.890909 379.631778 
L 833.890909 410.15776 
" clip-path="url(#p0588abbb67)" style="fill: none; stroke: #414141"/>
   </g>
   <g id="line2d_59">
    <path d="M 833.890909 345.982208 
L 833.890909 297.140637 
" clip-path="url(#p0588abbb67)" style="fill: none; stroke: #414141"/>
   </g>
   <g id="line2d_60">
    <path d="M 817.658182 410.15776 
L 850.123636 410.15776 
" clip-path="url(#p0588abbb67)" style="fill: none; stroke: #414141; stroke-linecap: square"/>
   </g>
   <g id="line2d_61">
    <path d="M 817.658182 297.140637 
L 850.123636 297.140637 
" clip-path="url(#p0588abbb67)" style="fill: none; stroke: #414141; stroke-linecap: square"/>
   </g>
   <g id="line2d_62">
    <g clip-path="url(#p0588abbb67)">
     <use xlink:href="#m26d30b853f" x="833.890909" y="247.731141" style="fill-opacity: 0; stroke: #414141"/>
     <use xlink:href="#m26d30b853f" x="833.890909" y="253.410394" style="fill-opacity: 0; stroke: #414141"/>
     <use xlink:href="#m26d30b853f" x="833.890909" y="89.28" style="fill-opacity: 0; stroke: #414141"/>
     <use xlink:href="#m26d30b853f" x="833.890909" y="290.89346" style="fill-opacity: 0; stroke: #414141"/>
     <use xlink:href="#m26d30b853f" x="833.890909" y="248.299067" style="fill-opacity: 0; stroke: #414141"/>
     <use xlink:href="#m26d30b853f" x="833.890909" y="274.423628" style="fill-opacity: 0; stroke: #414141"/>
     <use xlink:href="#m26d30b853f" x="833.890909" y="211.951851" style="fill-opacity: 0; stroke: #414141"/>
     <use xlink:href="#m26d30b853f" x="833.890909" y="269.766641" style="fill-opacity: 0; stroke: #414141"/>
     <use xlink:href="#m26d30b853f" x="833.890909" y="269.880226" style="fill-opacity: 0; stroke: #414141"/>
     <use xlink:href="#m26d30b853f" x="833.890909" y="272.719852" style="fill-opacity: 0; stroke: #414141"/>
     <use xlink:href="#m26d30b853f" x="833.890909" y="289.757609" style="fill-opacity: 0; stroke: #414141"/>
     <use xlink:href="#m26d30b853f" x="833.890909" y="183.55559" style="fill-opacity: 0; stroke: #414141"/>
     <use xlink:href="#m26d30b853f" x="833.890909" y="246.027366" style="fill-opacity: 0; stroke: #414141"/>
     <use xlink:href="#m26d30b853f" x="833.890909" y="281.23873" style="fill-opacity: 0; stroke: #414141"/>
     <use xlink:href="#m26d30b853f" x="833.890909" y="291.461385" style="fill-opacity: 0; stroke: #414141"/>
     <use xlink:href="#m26d30b853f" x="833.890909" y="291.461385" style="fill-opacity: 0; stroke: #414141"/>
    </g>
   </g>
   <g id="patch_12">
    <path d="M 882.589091 381.553072 
L 947.52 381.553072 
L 947.52 335.067307 
L 882.589091 335.067307 
L 882.589091 381.553072 
z
" clip-path="url(#p0588abbb67)" style="fill: #d181e4; stroke: #414141; stroke-linejoin: miter"/>
   </g>
   <g id="line2d_63">
    <path d="M 915.054545 381.553072 
L 915.054545 434.135331 
" clip-path="url(#p0588abbb67)" style="fill: none; stroke: #414141"/>
   </g>
   <g id="line2d_64">
    <path d="M 915.054545 335.067307 
L 915.054545 269.911029 
" clip-path="url(#p0588abbb67)" style="fill: none; stroke: #414141"/>
   </g>
   <g id="line2d_65">
    <path d="M 898.821818 434.135331 
L 931.287273 434.135331 
" clip-path="url(#p0588abbb67)" style="fill: none; stroke: #414141; stroke-linecap: square"/>
   </g>
   <g id="line2d_66">
    <path d="M 898.821818 269.911029 
L 931.287273 269.911029 
" clip-path="url(#p0588abbb67)" style="fill: none; stroke: #414141; stroke-linecap: square"/>
   </g>
   <g id="line2d_67">
    <g clip-path="url(#p0588abbb67)">
     <use xlink:href="#m26d30b853f" x="915.054545" y="243.238868" style="fill-opacity: 0; stroke: #414141"/>
     <use xlink:href="#m26d30b853f" x="915.054545" y="260.385257" style="fill-opacity: 0; stroke: #414141"/>
     <use xlink:href="#m26d30b853f" x="915.054545" y="252.383609" style="fill-opacity: 0; stroke: #414141"/>
     <use xlink:href="#m26d30b853f" x="915.054545" y="261.909381" style="fill-opacity: 0; stroke: #414141"/>
    </g>
   </g>
   <g id="patch_13">
    <path d="M 963.752727 384.094213 
L 1028.683636 384.094213 
L 1028.683636 344.427617 
L 963.752727 344.427617 
L 963.752727 384.094213 
z
" clip-path="url(#p0588abbb67)" style="fill: #e479c0; stroke: #414141; stroke-linejoin: miter"/>
   </g>
   <g id="line2d_68">
    <path d="M 996.218182 384.094213 
L 996.218182 420.154756 
" clip-path="url(#p0588abbb67)" style="fill: none; stroke: #414141"/>
   </g>
   <g id="line2d_69">
    <path d="M 996.218182 344.427617 
L 996.218182 286.730749 
" clip-path="url(#p0588abbb67)" style="fill: none; stroke: #414141"/>
   </g>
   <g id="line2d_70">
    <path d="M 979.985455 420.154756 
L 1012.450909 420.154756 
" clip-path="url(#p0588abbb67)" style="fill: none; stroke: #414141; stroke-linecap: square"/>
   </g>
   <g id="line2d_71">
    <path d="M 979.985455 286.730749 
L 1012.450909 286.730749 
" clip-path="url(#p0588abbb67)" style="fill: none; stroke: #414141; stroke-linecap: square"/>
   </g>
   <g id="line2d_72">
    <g clip-path="url(#p0588abbb67)">
     <use xlink:href="#m26d30b853f" x="996.218182" y="254.276261" style="fill-opacity: 0; stroke: #414141"/>
     <use xlink:href="#m26d30b853f" x="996.218182" y="275.912586" style="fill-opacity: 0; stroke: #414141"/>
     <use xlink:href="#m26d30b853f" x="996.218182" y="275.912586" style="fill-opacity: 0; stroke: #414141"/>
     <use xlink:href="#m26d30b853f" x="996.218182" y="275.912586" style="fill-opacity: 0; stroke: #414141"/>
     <use xlink:href="#m26d30b853f" x="996.218182" y="268.700478" style="fill-opacity: 0; stroke: #414141"/>
     <use xlink:href="#m26d30b853f" x="996.218182" y="279.518641" style="fill-opacity: 0; stroke: #414141"/>
     <use xlink:href="#m26d30b853f" x="996.218182" y="128.064363" style="fill-opacity: 0; stroke: #414141"/>
     <use xlink:href="#m26d30b853f" x="996.218182" y="268.700478" style="fill-opacity: 0; stroke: #414141"/>
     <use xlink:href="#m26d30b853f" x="996.218182" y="275.912586" style="fill-opacity: 0; stroke: #414141"/>
     <use xlink:href="#m26d30b853f" x="996.218182" y="268.700478" style="fill-opacity: 0; stroke: #414141"/>
     <use xlink:href="#m26d30b853f" x="996.218182" y="236.24599" style="fill-opacity: 0; stroke: #414141"/>
     <use xlink:href="#m26d30b853f" x="996.218182" y="265.094424" style="fill-opacity: 0; stroke: #414141"/>
     <use xlink:href="#m26d30b853f" x="996.218182" y="196.579393" style="fill-opacity: 0; stroke: #414141"/>
     <use xlink:href="#m26d30b853f" x="996.218182" y="279.518641" style="fill-opacity: 0; stroke: #414141"/>
    </g>
   </g>
   <g id="line2d_73">
    <path d="M 152.116364 363.307118 
L 217.047273 363.307118 
" clip-path="url(#p0588abbb67)" style="fill: none; stroke: #414141"/>
   </g>
   <g id="line2d_74">
    <path d="M 233.28 358.695072 
L 298.210909 358.695072 
" clip-path="url(#p0588abbb67)" style="fill: none; stroke: #414141"/>
   </g>
   <g id="line2d_75">
    <path d="M 314.443636 373.164949 
L 379.374545 373.164949 
" clip-path="url(#p0588abbb67)" style="fill: none; stroke: #414141"/>
   </g>
   <g id="line2d_76">
    <path d="M 395.607273 367.19251 
L 460.538182 367.19251 
" clip-path="url(#p0588abbb67)" style="fill: none; stroke: #414141"/>
   </g>
   <g id="line2d_77">
    <path d="M 476.770909 355.339651 
L 541.701818 355.339651 
" clip-path="url(#p0588abbb67)" style="fill: none; stroke: #414141"/>
   </g>
   <g id="line2d_78">
    <path d="M 557.934545 368.54495 
L 622.865455 368.54495 
" clip-path="url(#p0588abbb67)" style="fill: none; stroke: #414141"/>
   </g>
   <g id="line2d_79">
    <path d="M 639.098182 370.171819 
L 704.029091 370.171819 
" clip-path="url(#p0588abbb67)" style="fill: none; stroke: #414141"/>
   </g>
   <g id="line2d_80">
    <path d="M 720.261818 362.945393 
L 785.192727 362.945393 
" clip-path="url(#p0588abbb67)" style="fill: none; stroke: #414141"/>
   </g>
   <g id="line2d_81">
    <path d="M 801.425455 366.313931 
L 866.356364 366.313931 
" clip-path="url(#p0588abbb67)" style="fill: none; stroke: #414141"/>
   </g>
   <g id="line2d_82">
    <path d="M 882.589091 359.834313 
L 947.52 359.834313 
" clip-path="url(#p0588abbb67)" style="fill: none; stroke: #414141"/>
   </g>
   <g id="line2d_83">
    <path d="M 963.752727 362.457888 
L 1028.683636 362.457888 
" clip-path="url(#p0588abbb67)" style="fill: none; stroke: #414141"/>
   </g>
   <g id="patch_14">
    <path d="M 144 512.64 
L 144 69.12 
" style="fill: none; stroke: #000000; stroke-width: 0.8; stroke-linejoin: miter; stroke-linecap: square"/>
   </g>
   <g id="patch_15">
    <path d="M 1036.8 512.64 
L 1036.8 69.12 
" style="fill: none; stroke: #000000; stroke-width: 0.8; stroke-linejoin: miter; stroke-linecap: square"/>
   </g>
   <g id="patch_16">
    <path d="M 144 512.64 
L 1036.8 512.64 
" style="fill: none; stroke: #000000; stroke-width: 0.8; stroke-linejoin: miter; stroke-linecap: square"/>
   </g>
   <g id="patch_17">
    <path d="M 144 69.12 
L 1036.8 69.12 
" style="fill: none; stroke: #000000; stroke-width: 0.8; stroke-linejoin: miter; stroke-linecap: square"/>
   </g>
   <g id="text_20">
    <!-- Feature Distributions AFTER Scaling -->
    <g transform="translate(386.201562 63.12) scale(0.2 -0.2)">
     <defs>
      <path id="DejaVuSans-Bold-46" d="M 588 4666 
L 3834 4666 
L 3834 3756 
L 1791 3756 
L 1791 2888 
L 3713 2888 
L 3713 1978 
L 1791 1978 
L 1791 0 
L 588 0 
L 588 4666 
z
" transform="scale(0.015625)"/>
      <path id="DejaVuSans-Bold-65" d="M 4031 1759 
L 4031 1441 
L 1416 1441 
Q 1456 1047 1700 850 
Q 1944 653 2381 653 
Q 2734 653 3104 758 
Q 3475 863 3866 1075 
L 3866 213 
Q 3469 63 3072 -14 
Q 2675 -91 2278 -91 
Q 1328 -91 801 392 
Q 275 875 275 1747 
Q 275 2603 792 3093 
Q 1309 3584 2216 3584 
Q 3041 3584 3536 3087 
Q 4031 2591 4031 1759 
z
M 2881 2131 
Q 2881 2450 2695 2645 
Q 2509 2841 2209 2841 
Q 1884 2841 1681 2658 
Q 1478 2475 1428 2131 
L 2881 2131 
z
" transform="scale(0.015625)"/>
      <path id="DejaVuSans-Bold-61" d="M 2106 1575 
Q 1756 1575 1579 1456 
Q 1403 1338 1403 1106 
Q 1403 894 1545 773 
Q 1688 653 1941 653 
Q 2256 653 2472 879 
Q 2688 1106 2688 1447 
L 2688 1575 
L 2106 1575 
z
M 3816 1997 
L 3816 0 
L 2688 0 
L 2688 519 
Q 2463 200 2181 54 
Q 1900 -91 1497 -91 
Q 953 -91 614 226 
Q 275 544 275 1050 
Q 275 1666 698 1953 
Q 1122 2241 2028 2241 
L 2688 2241 
L 2688 2328 
Q 2688 2594 2478 2717 
Q 2269 2841 1825 2841 
Q 1466 2841 1156 2769 
Q 847 2697 581 2553 
L 581 3406 
Q 941 3494 1303 3539 
Q 1666 3584 2028 3584 
Q 2975 3584 3395 3211 
Q 3816 2838 3816 1997 
z
" transform="scale(0.015625)"/>
      <path id="DejaVuSans-Bold-74" d="M 1759 4494 
L 1759 3500 
L 2913 3500 
L 2913 2700 
L 1759 2700 
L 1759 1216 
Q 1759 972 1856 886 
Q 1953 800 2241 800 
L 2816 800 
L 2816 0 
L 1856 0 
Q 1194 0 917 276 
Q 641 553 641 1216 
L 641 2700 
L 84 2700 
L 84 3500 
L 641 3500 
L 641 4494 
L 1759 4494 
z
" transform="scale(0.015625)"/>
      <path id="DejaVuSans-Bold-75" d="M 500 1363 
L 500 3500 
L 1625 3500 
L 1625 3150 
Q 1625 2866 1622 2436 
Q 1619 2006 1619 1863 
Q 1619 1441 1641 1255 
Q 1663 1069 1716 984 
Q 1784 875 1895 815 
Q 2006 756 2150 756 
Q 2500 756 2700 1025 
Q 2900 1294 2900 1772 
L 2900 3500 
L 4019 3500 
L 4019 0 
L 2900 0 
L 2900 506 
Q 2647 200 2364 54 
Q 2081 -91 1741 -91 
Q 1134 -91 817 281 
Q 500 653 500 1363 
z
" transform="scale(0.015625)"/>
      <path id="DejaVuSans-Bold-72" d="M 3138 2547 
Q 2991 2616 2845 2648 
Q 2700 2681 2553 2681 
Q 2122 2681 1889 2404 
Q 1656 2128 1656 1613 
L 1656 0 
L 538 0 
L 538 3500 
L 1656 3500 
L 1656 2925 
Q 1872 3269 2151 3426 
Q 2431 3584 2822 3584 
Q 2878 3584 2943 3579 
Q 3009 3575 3134 3559 
L 3138 2547 
z
" transform="scale(0.015625)"/>
      <path id="DejaVuSans-Bold-20" transform="scale(0.015625)"/>
      <path id="DejaVuSans-Bold-44" d="M 1791 3756 
L 1791 909 
L 2222 909 
Q 2959 909 3348 1275 
Q 3738 1641 3738 2338 
Q 3738 3031 3350 3393 
Q 2963 3756 2222 3756 
L 1791 3756 
z
M 588 4666 
L 1856 4666 
Q 2919 4666 3439 4514 
Q 3959 4363 4331 4000 
Q 4659 3684 4818 3271 
Q 4978 2859 4978 2338 
Q 4978 1809 4818 1395 
Q 4659 981 4331 666 
Q 3956 303 3431 151 
Q 2906 0 1856 0 
L 588 0 
L 588 4666 
z
" transform="scale(0.015625)"/>
      <path id="DejaVuSans-Bold-69" d="M 538 3500 
L 1656 3500 
L 1656 0 
L 538 0 
L 538 3500 
z
M 538 4863 
L 1656 4863 
L 1656 3950 
L 538 3950 
L 538 4863 
z
" transform="scale(0.015625)"/>
      <path id="DejaVuSans-Bold-73" d="M 3272 3391 
L 3272 2541 
Q 2913 2691 2578 2766 
Q 2244 2841 1947 2841 
Q 1628 2841 1473 2761 
Q 1319 2681 1319 2516 
Q 1319 2381 1436 2309 
Q 1553 2238 1856 2203 
L 2053 2175 
Q 2913 2066 3209 1816 
Q 3506 1566 3506 1031 
Q 3506 472 3093 190 
Q 2681 -91 1863 -91 
Q 1516 -91 1145 -36 
Q 775 19 384 128 
L 384 978 
Q 719 816 1070 734 
Q 1422 653 1784 653 
Q 2113 653 2278 743 
Q 2444 834 2444 1013 
Q 2444 1163 2330 1236 
Q 2216 1309 1875 1350 
L 1678 1375 
Q 931 1469 631 1722 
Q 331 1975 331 2491 
Q 331 3047 712 3315 
Q 1094 3584 1881 3584 
Q 2191 3584 2531 3537 
Q 2872 3491 3272 3391 
z
" transform="scale(0.015625)"/>
      <path id="DejaVuSans-Bold-62" d="M 2400 722 
Q 2759 722 2948 984 
Q 3138 1247 3138 1747 
Q 3138 2247 2948 2509 
Q 2759 2772 2400 2772 
Q 2041 2772 1848 2508 
Q 1656 2244 1656 1747 
Q 1656 1250 1848 986 
Q 2041 722 2400 722 
z
M 1656 2988 
Q 1888 3294 2169 3439 
Q 2450 3584 2816 3584 
Q 3463 3584 3878 3070 
Q 4294 2556 4294 1747 
Q 4294 938 3878 423 
Q 3463 -91 2816 -91 
Q 2450 -91 2169 54 
Q 1888 200 1656 506 
L 1656 0 
L 538 0 
L 538 4863 
L 1656 4863 
L 1656 2988 
z
" transform="scale(0.015625)"/>
      <path id="DejaVuSans-Bold-6f" d="M 2203 2784 
Q 1831 2784 1636 2517 
Q 1441 2250 1441 1747 
Q 1441 1244 1636 976 
Q 1831 709 2203 709 
Q 2569 709 2762 976 
Q 2956 1244 2956 1747 
Q 2956 2250 2762 2517 
Q 2569 2784 2203 2784 
z
M 2203 3584 
Q 3106 3584 3614 3096 
Q 4122 2609 4122 1747 
Q 4122 884 3614 396 
Q 3106 -91 2203 -91 
Q 1297 -91 786 396 
Q 275 884 275 1747 
Q 275 2609 786 3096 
Q 1297 3584 2203 3584 
z
" transform="scale(0.015625)"/>
      <path id="DejaVuSans-Bold-6e" d="M 4056 2131 
L 4056 0 
L 2931 0 
L 2931 347 
L 2931 1631 
Q 2931 2084 2911 2256 
Q 2891 2428 2841 2509 
Q 2775 2619 2662 2680 
Q 2550 2741 2406 2741 
Q 2056 2741 1856 2470 
Q 1656 2200 1656 1722 
L 1656 0 
L 538 0 
L 538 3500 
L 1656 3500 
L 1656 2988 
Q 1909 3294 2193 3439 
Q 2478 3584 2822 3584 
Q 3428 3584 3742 3212 
Q 4056 2841 4056 2131 
z
" transform="scale(0.015625)"/>
      <path id="DejaVuSans-Bold-41" d="M 3419 850 
L 1538 850 
L 1241 0 
L 31 0 
L 1759 4666 
L 3194 4666 
L 4922 0 
L 3713 0 
L 3419 850 
z
M 1838 1716 
L 3116 1716 
L 2478 3572 
L 1838 1716 
z
" transform="scale(0.015625)"/>
      <path id="DejaVuSans-Bold-54" d="M 31 4666 
L 4331 4666 
L 4331 3756 
L 2784 3756 
L 2784 0 
L 1581 0 
L 1581 3756 
L 31 3756 
L 31 4666 
z
" transform="scale(0.015625)"/>
      <path id="DejaVuSans-Bold-45" d="M 588 4666 
L 3834 4666 
L 3834 3756 
L 1791 3756 
L 1791 2888 
L 3713 2888 
L 3713 1978 
L 1791 1978 
L 1791 909 
L 3903 909 
L 3903 0 
L 588 0 
L 588 4666 
z
" transform="scale(0.015625)"/>
      <path id="DejaVuSans-Bold-52" d="M 2297 2597 
Q 2675 2597 2839 2737 
Q 3003 2878 3003 3200 
Q 3003 3519 2839 3656 
Q 2675 3794 2297 3794 
L 1791 3794 
L 1791 2597 
L 2297 2597 
z
M 1791 1766 
L 1791 0 
L 588 0 
L 588 4666 
L 2425 4666 
Q 3347 4666 3776 4356 
Q 4206 4047 4206 3378 
Q 4206 2916 3982 2619 
Q 3759 2322 3309 2181 
Q 3556 2125 3751 1926 
Q 3947 1728 4147 1325 
L 4800 0 
L 3519 0 
L 2950 1159 
Q 2778 1509 2601 1637 
Q 2425 1766 2131 1766 
L 1791 1766 
z
" transform="scale(0.015625)"/>
      <path id="DejaVuSans-Bold-53" d="M 3834 4519 
L 3834 3531 
Q 3450 3703 3084 3790 
Q 2719 3878 2394 3878 
Q 1963 3878 1756 3759 
Q 1550 3641 1550 3391 
Q 1550 3203 1689 3098 
Q 1828 2994 2194 2919 
L 2706 2816 
Q 3484 2659 3812 2340 
Q 4141 2022 4141 1434 
Q 4141 663 3683 286 
Q 3225 -91 2284 -91 
Q 1841 -91 1394 -6 
Q 947 78 500 244 
L 500 1259 
Q 947 1022 1364 901 
Q 1781 781 2169 781 
Q 2563 781 2772 912 
Q 2981 1044 2981 1288 
Q 2981 1506 2839 1625 
Q 2697 1744 2272 1838 
L 1806 1941 
Q 1106 2091 782 2419 
Q 459 2747 459 3303 
Q 459 4000 909 4375 
Q 1359 4750 2203 4750 
Q 2588 4750 2994 4692 
Q 3400 4634 3834 4519 
z
" transform="scale(0.015625)"/>
      <path id="DejaVuSans-Bold-63" d="M 3366 3391 
L 3366 2478 
Q 3138 2634 2908 2709 
Q 2678 2784 2431 2784 
Q 1963 2784 1702 2511 
Q 1441 2238 1441 1747 
Q 1441 1256 1702 982 
Q 1963 709 2431 709 
Q 2694 709 2930 787 
Q 3166 866 3366 1019 
L 3366 103 
Q 3103 6 2833 -42 
Q 2563 -91 2291 -91 
Q 1344 -91 809 395 
Q 275 881 275 1747 
Q 275 2613 809 3098 
Q 1344 3584 2291 3584 
Q 2566 3584 2833 3536 
Q 3100 3488 3366 3391 
z
" transform="scale(0.015625)"/>
      <path id="DejaVuSans-Bold-6c" d="M 538 4863 
L 1656 4863 
L 1656 0 
L 538 0 
L 538 4863 
z
" transform="scale(0.015625)"/>
      <path id="DejaVuSans-Bold-67" d="M 2919 594 
Q 2688 288 2409 144 
Q 2131 0 1766 0 
Q 1125 0 706 504 
Q 288 1009 288 1791 
Q 288 2575 706 3076 
Q 1125 3578 1766 3578 
Q 2131 3578 2409 3434 
Q 2688 3291 2919 2981 
L 2919 3500 
L 4044 3500 
L 4044 353 
Q 4044 -491 3511 -936 
Q 2978 -1381 1966 -1381 
Q 1638 -1381 1331 -1331 
Q 1025 -1281 716 -1178 
L 716 -306 
Q 1009 -475 1290 -558 
Q 1572 -641 1856 -641 
Q 2406 -641 2662 -400 
Q 2919 -159 2919 353 
L 2919 594 
z
M 2181 2772 
Q 1834 2772 1640 2515 
Q 1447 2259 1447 1791 
Q 1447 1309 1634 1061 
Q 1822 813 2181 813 
Q 2531 813 2725 1069 
Q 2919 1325 2919 1791 
Q 2919 2259 2725 2515 
Q 2531 2772 2181 2772 
z
" transform="scale(0.015625)"/>
     </defs>
     <use xlink:href="#DejaVuSans-Bold-46"/>
     <use xlink:href="#DejaVuSans-Bold-65" transform="translate(64.310547 0)"/>
     <use xlink:href="#DejaVuSans-Bold-61" transform="translate(132.132812 0)"/>
     <use xlink:href="#DejaVuSans-Bold-74" transform="translate(199.613281 0)"/>
     <use xlink:href="#DejaVuSans-Bold-75" transform="translate(247.416016 0)"/>
     <use xlink:href="#DejaVuSans-Bold-72" transform="translate(318.607422 0)"/>
     <use xlink:href="#DejaVuSans-Bold-65" transform="translate(367.923828 0)"/>
     <use xlink:href="#DejaVuSans-Bold-20" transform="translate(435.746094 0)"/>
     <use xlink:href="#DejaVuSans-Bold-44" transform="translate(470.560547 0)"/>
     <use xlink:href="#DejaVuSans-Bold-69" transform="translate(553.568359 0)"/>
     <use xlink:href="#DejaVuSans-Bold-73" transform="translate(587.845703 0)"/>
     <use xlink:href="#DejaVuSans-Bold-74" transform="translate(647.367188 0)"/>
     <use xlink:href="#DejaVuSans-Bold-72" transform="translate(695.169922 0)"/>
     <use xlink:href="#DejaVuSans-Bold-69" transform="translate(744.486328 0)"/>
     <use xlink:href="#DejaVuSans-Bold-62" transform="translate(778.763672 0)"/>
     <use xlink:href="#DejaVuSans-Bold-75" transform="translate(850.345703 0)"/>
     <use xlink:href="#DejaVuSans-Bold-74" transform="translate(921.537109 0)"/>
     <use xlink:href="#DejaVuSans-Bold-69" transform="translate(969.339844 0)"/>
     <use xlink:href="#DejaVuSans-Bold-6f" transform="translate(1003.617188 0)"/>
     <use xlink:href="#DejaVuSans-Bold-6e" transform="translate(1072.318359 0)"/>
     <use xlink:href="#DejaVuSans-Bold-73" transform="translate(1143.509766 0)"/>
     <use xlink:href="#DejaVuSans-Bold-20" transform="translate(1203.03125 0)"/>
     <use xlink:href="#DejaVuSans-Bold-41" transform="translate(1237.845703 0)"/>
     <use xlink:href="#DejaVuSans-Bold-46" transform="translate(1315.238281 0)"/>
     <use xlink:href="#DejaVuSans-Bold-54" transform="translate(1383.548828 0)"/>
     <use xlink:href="#DejaVuSans-Bold-45" transform="translate(1451.761719 0)"/>
     <use xlink:href="#DejaVuSans-Bold-52" transform="translate(1520.072266 0)"/>
     <use xlink:href="#DejaVuSans-Bold-20" transform="translate(1597.074219 0)"/>
     <use xlink:href="#DejaVuSans-Bold-53" transform="translate(1631.888672 0)"/>
     <use xlink:href="#DejaVuSans-Bold-63" transform="translate(1703.910156 0)"/>
     <use xlink:href="#DejaVuSans-Bold-61" transform="translate(1763.1875 0)"/>
     <use xlink:href="#DejaVuSans-Bold-6c" transform="translate(1830.667969 0)"/>
     <use xlink:href="#DejaVuSans-Bold-69" transform="translate(1864.945312 0)"/>
     <use xlink:href="#DejaVuSans-Bold-6e" transform="translate(1899.222656 0)"/>
     <use xlink:href="#DejaVuSans-Bold-67" transform="translate(1970.414062 0)"/>
    </g>
   </g>
  </g>
 </g>
 <defs>
  <clipPath id="p0588abbb67">
   <rect x="144" y="69.12" width="892.8" height="443.52"/>
  </clipPath>
 </defs>
</svg>
